<svg xmlns="http://www.w3.org/2000/svg" viewBox="0 0 718.69 231.31"><defs><style>.cls-1{fill:#fff;}</style></defs><g id="Layer_2" data-name="Layer 2"><g id="Layer_1-2" data-name="Layer 1"><g id="EDITED_FINAL" data-name="EDITED FINAL"><path class="cls-1" d="M238.36,2.27c18.88,0,35.09,27.73,42.2,67.4h45.5C311.37,28.68,277.64,0,238.36,0Z"/><path class="cls-1" d="M280.56,159.5c-7.11,39.67-23.32,67.4-42.2,67.4s-35.09-27.73-42.2-67.4H149.91c14.28,42.13,48.49,71.81,88.45,71.81s74.17-29.68,88.44-71.81Z"/><polygon class="cls-1" points="12.74 230.11 8.31 230.11 91.63 1.2 96.05 1.2 12.74 230.11"/><rect class="cls-1" y="225.82" width="24.35" height="4.43"/><rect class="cls-1" x="45.32" y="134.79" width="124.36" height="4.43"/><path class="cls-1" d="M125.34,1h-33l50.31,138.22h46.07L142.94,13.33A18.74,18.74,0,0,0,125.34,1Z"/><path class="cls-1" d="M0,225.75s9.7.79,15.53-15.52-2.79,16.27-2.79,16.27l-2.63,2.25Z"/><path class="cls-1" d="M24.35,225.75s-9.35-.36-7.3-7.29-5.25,7.29-5.25,7.29l3.18,3Z"/><path class="cls-1" d="M403.27,77.8H390.64l-2.45,6.41h-2L396,59h2l9.75,25.2h-2Zm-.68-1.8L397,61.35,391.36,76Z"/><path class="cls-1" d="M436,82.41v1.8H422.2V59h1.91v23.4Z"/><path class="cls-1" d="M465.25,82.41v1.8H450.74V59h14.33v1.8H452.65V70.6h11.52v1.8H452.65v10Z"/><path class="cls-1" d="M495.19,84.21,487.92,73l-7.27,11.23h-2.23l8.38-13L478.88,59h2.2l6.84,10.55L494.72,59h2.2L489,71.25l8.39,13Z"/><path class="cls-1" d="M387.32,114.8a12.78,12.78,0,0,1,13.11-13,12.31,12.31,0,0,1,10.8,6l-1.7,1a10.26,10.26,0,0,0-9.1-5.18,11.16,11.16,0,1,0,0,22.32,10.3,10.3,0,0,0,9.18-5.3l1.69,1a12.32,12.32,0,0,1-10.87,6.15A12.77,12.77,0,0,1,387.32,114.8Z"/><path class="cls-1" d="M425.15,114.8a13,13,0,1,1,13,13A12.92,12.92,0,0,1,425.15,114.8Zm24.08,0A11.09,11.09,0,1,0,438.14,126,11,11,0,0,0,449.23,114.8Z"/><path class="cls-1" d="M485.22,102.2v25.2h-1.69l-14.87-21.67V127.4h-1.9V102.2h1.65l14.9,21.67V102.2Z"/><path class="cls-1" d="M520.74,102.2v25.2h-1.69l-14.86-21.67V127.4h-1.91V102.2h1.65l14.91,21.67V102.2Z"/><path class="cls-1" d="M536.36,114.8a13,13,0,1,1,13,13A12.92,12.92,0,0,1,536.36,114.8Zm24.08,0A11.09,11.09,0,1,0,549.36,126,11,11,0,0,0,560.44,114.8Z"/><path class="cls-1" d="M591.75,125.6v1.8H578V102.2h1.9v23.4Z"/><path class="cls-1" d="M620.29,125.6v1.8H606.51V102.2h1.9v23.4Z"/><path class="cls-1" d="M640.12,117V127.4h-1.91V117L629,102.2h2.15l8,13,7.95-13h2.16Z"/><path class="cls-1" d="M405.18,153.2a7.6,7.6,0,0,1-7.85,7.77h-6.66v9.61h-1.91V145.39h8.57A7.62,7.62,0,0,1,405.18,153.2Zm-1.91,0a5.76,5.76,0,0,0-5.94-6h-6.66v12h6.66A5.75,5.75,0,0,0,403.27,153.2Z"/><path class="cls-1" d="M435.55,145.39v25.19h-1.9V158.53H419v12.05h-1.91V145.39H419v11.34h14.65V145.39Z"/><path class="cls-1" d="M447.57,158a13,13,0,1,1,13,13A12.93,12.93,0,0,1,447.57,158Zm24.08,0a11.09,11.09,0,1,0-11.08,11.16A11,11,0,0,0,471.65,158Z"/><path class="cls-1" d="M499.62,147.19H491.7v23.39h-1.95V147.19h-7.91v-1.8h17.78Z"/><path class="cls-1" d="M507.89,158a13,13,0,1,1,13,13A12.92,12.92,0,0,1,507.89,158ZM532,158a11.09,11.09,0,1,0-11.08,11.16A11,11,0,0,0,532,158Z"/><path class="cls-1" d="M569.87,159.82c0,6.09-4.64,11.16-12.17,11.16a13,13,0,1,1-.14-26,12.44,12.44,0,0,1,10.84,6.08l-1.7,1a10.24,10.24,0,0,0-9.14-5.25,11.16,11.16,0,1,0,.14,22.32c6.12,0,9.83-3.78,10.23-8.5H557.24v-1.8h12.63Z"/><path class="cls-1" d="M591.71,160.25h-8v10.33h-1.91V145.39h9.94a7.43,7.43,0,0,1,1.9,14.61L600,170.58h-2.2Zm-8-1.8h8a5.63,5.63,0,0,0,0-11.26h-8Z"/><path class="cls-1" d="M625.62,164.18H613l-2.44,6.4h-2l9.79-25.19h2l9.75,25.19h-2Zm-.69-1.8-5.61-14.65-5.62,14.65Z"/><path class="cls-1" d="M657.36,153.2a7.6,7.6,0,0,1-7.85,7.77h-6.65v9.61H641V145.39h8.56A7.62,7.62,0,0,1,657.36,153.2Zm-1.91,0a5.76,5.76,0,0,0-5.94-6h-6.65v12h6.65A5.75,5.75,0,0,0,655.45,153.2Z"/><path class="cls-1" d="M687.74,145.39v25.19h-1.91V158.53H671.18v12.05h-1.91V145.39h1.91v11.34h14.65V145.39Z"/><path class="cls-1" d="M709.51,160.22v10.36H707.6V160.22l-9.18-14.83h2.16l8,13,8-13h2.16Z"/></g></g></g></svg>