<svg xmlns="http://www.w3.org/2000/svg" viewBox="0 0 326.8 231.31"><defs><style>.cls-1{fill:#fff;}</style></defs><g id="Layer_2" data-name="Layer 2"><g id="Layer_1-2" data-name="Layer 1"><g id="Layer_2-2" data-name="Layer 2"><g id="Layer_1-2-2" data-name="Layer 1-2"><g id="EDITED_FINAL" data-name="EDITED FINAL"><path class="cls-1" d="M238.36,2.27c18.88,0,35.09,27.73,42.2,67.4h45.5C311.37,28.68,277.64,0,238.36,0Z"/><path class="cls-1" d="M280.56,159.5c-7.11,39.67-23.32,67.4-42.2,67.4s-35.09-27.73-42.2-67.4H149.91c14.28,42.13,48.49,71.81,88.45,71.81s74.17-29.68,88.44-71.81Z"/><polygon class="cls-1" points="12.74 230.11 8.31 230.11 91.63 1.2 96.05 1.2 12.74 230.11"/><rect class="cls-1" y="225.82" width="24.35" height="4.43"/><rect class="cls-1" x="45.32" y="134.79" width="124.36" height="4.43"/><path class="cls-1" d="M125.34,1h-33l50.31,138.22h46.07L142.94,13.33A18.73,18.73,0,0,0,125.34,1Z"/><path class="cls-1" d="M0,225.75s9.7.79,15.53-15.52-2.79,16.27-2.79,16.27l-2.63,2.25Z"/><path class="cls-1" d="M24.35,225.75s-9.35-.36-7.3-7.29-5.25,7.29-5.25,7.29l3.18,3Z"/></g></g></g></g></g></svg>