<?xml version="1.0" encoding="utf-8"?>
<!-- Generator: Adobe Illustrator 24.1.0, SVG Export Plug-In . SVG Version: 6.00 Build 0)  -->
<svg version="1.1" id="Layer_1" xmlns="http://www.w3.org/2000/svg" xmlns:xlink="http://www.w3.org/1999/xlink" x="0px" y="0px"
	 viewBox="0 0 807.3 204.5" style="enable-background:new 0 0 807.3 204.5;" xml:space="preserve">
<style type="text/css">
	.st0{fill:#FFFFFF;}
	.st1{enable-background:new    ;}
	.st2{fill:#00FF99;}
</style>
<g id="Layer_2_1_">
	<g id="Layer_1-2">
		<path class="st0" d="M89.4,3.8H58.5L0,138.9c0,0,12.3-0.9,33.3-2.3l11.6-26.5h58.4l9.3,21.5c10.1-0.6,20.7-1.2,31.7-1.8L89.4,3.8z
			 M57.7,80.4L73.9,43l16.4,37.4H57.7z"/>
		<path class="st0" d="M266.6,30.8c-2.9-6.2-7.4-11.6-12.9-15.8c-5.1-3.8-10.8-6.7-16.9-8.4c-6.7-1.9-13.7-2.9-20.7-2.8h-49.8v124.8
			c9.7-0.5,19.6-1,29.7-1.5v-23.7h21c7.5,0.1,14.9-1.2,21.8-3.8c6.5-2.4,12.5-6.3,17.4-11.2c4.9-4.6,8.6-10.2,11-16.4
			c2.6-6.4,3.9-13.3,3.8-20.3C271.2,44.5,269.7,37.3,266.6,30.8z M235.5,67.3c-4.5,4.6-10.9,6.7-19.2,6.5H196V33.5h20.1
			c3.8,0,7.5,0.4,11.2,1.3c3,0.7,5.9,2,8.4,3.8c1.5,1.2,2.8,2.6,3.8,4.3c1.3,1.9,1.9,4.9,1.9,8.8C241.4,58.2,239.5,63.4,235.5,67.3
			L235.5,67.3z"/>
		<path class="st0" d="M538.6,109.2h-57.5V3.8h-29.7v116.6c28.8,0.2,58.1,0.9,87.2,1.8V109.2z"/>
		<path class="st0" d="M648.7,109.2h-57.5V3.8h-29.7v119.2c30.1,1.2,59.5,2.6,87.2,4.1L648.7,109.2z"/>
		<path class="st0" d="M801.8,43.5c-1.8-4.2-4-8.2-6.5-12c-2.6-3.8-5.5-7.3-8.8-10.5c-3.2-3.3-6.7-6.3-10.6-8.8
			c-3.8-2.5-7.8-4.7-12-6.6C755,1.9,745.6,0,736.1,0c-9.5,0-19,1.9-27.8,5.6c-4.2,1.8-8.2,4-12,6.6c-3.9,2.6-7.5,5.6-10.7,8.9
			c-3.2,3.2-6.1,6.8-8.6,10.6c-2.5,3.8-4.7,7.8-6.6,12c-3.7,8.8-5.6,18.2-5.6,27.8c0,9.5,1.9,19,5.6,27.8
			c3.6,8.4,8.8,16.1,15.2,22.7c3.1,3,6.4,5.8,10,8.2c27.5,1.7,52.1,3.5,72.3,5c2.7-1.4,5.3-2.9,7.9-4.6c3.8-2.5,7.4-5.4,10.6-8.7
			c3.3-3.3,6.3-6.9,8.9-10.8c2.5-3.8,4.7-7.8,6.5-12c3.7-8.8,5.6-18.2,5.6-27.8C807.3,61.7,805.4,52.3,801.8,43.5z M774.3,87.4
			c-4.2,9.9-12.2,17.9-22.1,22.1c-10.3,4.4-22,4.4-32.3,0c-9.9-4.2-17.9-12.2-22.1-22.1c-4.4-10.3-4.4-22,0-32.3
			c4.2-10,12.2-17.9,22.1-22.1c10.3-4.4,22-4.4,32.3,0c9.9,4.2,17.9,12.2,22.1,22.1C778.7,65.4,778.7,77.1,774.3,87.4L774.3,87.4z"
			/>
		<path class="st0" d="M421.4,43.5c-1.8-4.2-4-8.2-6.5-12c-2.6-3.8-5.5-7.3-8.9-10.5c-3.2-3.3-6.7-6.3-10.6-8.8
			c-3.8-2.5-7.8-4.7-12-6.6C374.6,1.9,365.2,0,355.7,0c-9.5,0-19,1.9-27.8,5.6c-4.2,1.9-8.2,4-12,6.6c-3.9,2.6-7.4,5.6-10.7,8.9
			c-3.2,3.2-6.1,6.8-8.6,10.6c-2.5,3.8-4.7,7.8-6.5,12c-3.7,8.8-5.6,18.2-5.6,27.8c0,9.2,1.8,18.4,5.2,26.9c1.5-2.3,4.6-3,6.9-1.5
			c0.9,0.6,1.5,1.4,1.9,2.3c1.8,0,3.5,1,4.4,2.6c0.2,0,0.4,0,0.6,0.1c1.3-0.3,2.7-0.1,3.8,0.6c0.2,0,0.5,0,0.7,0.1
			c0.7-0.5,1.6-0.7,2.5-0.7c1.3,0,2.6,0.6,3.4,1.6c0.2-0.1,0.5-0.1,0.7-0.1c1.2,0,2.2,0.7,2.6,1.9c1.2,0.1,2.2,0.9,2.5,2.1
			c1.2-0.9,2.9-0.6,3.8,0.6c0.1,0.1,0.1,0.2,0.2,0.2c1.1-1.1,2.8-1,3.9,0.1c0.2,0.2,0.4,0.5,0.5,0.8c0.9-0.8,2.1-0.9,3.1-0.3
			c0.5-0.6,1.3-1,2.1-1h0.2c0.4-1.1,1.4-1.9,2.6-1.9c0.2,0,0.5,0,0.7,0.1c0.5-0.8,1.4-1.3,2.4-1.3c0.1,0,0.2,0,0.4,0
			c0.3-1.3,1.4-2.2,2.7-2.2c0.2,0,0.5,0,0.7,0.1c0.2-1.2,1.2-2.1,2.4-2.2c0.1-1.4,1.3-2.5,2.7-2.5c-0.2-0.4-0.3-0.8-0.3-1.2
			c0-1.1,0.7-2.1,1.7-2.6c0.1-0.3,0.3-0.6,0.5-0.8c-0.1-0.2-0.1-0.4-0.1-0.6c0-1.3,0.9-2.4,2.2-2.7c0,0,0,0,0-0.1
			c0-1.3,0.9-2.4,2.1-2.7v-0.1v0.1c0.2-0.1,0.5-0.1,0.7-0.1h0.2c0.2,0,0.5,0,0.7,0.1v-0.1v0.1c1.2,0.3,2.1,1.4,2.1,2.7v0.1
			c1.3,0.3,2.2,1.4,2.2,2.7c0,0.2,0,0.4-0.1,0.6c0.2,0.2,0.4,0.5,0.5,0.8c1.1,0.4,1.7,1.4,1.7,2.6c0,0.4-0.1,0.9-0.3,1.2
			c1.4,0,2.6,1.1,2.7,2.5c1.2,0.1,2.2,1,2.4,2.2c0.2-0.1,0.4-0.1,0.7-0.1c1.3,0,2.4,0.9,2.7,2.2c0.1,0,0.2,0,0.4,0
			c1,0,1.9,0.5,2.4,1.3c0.2-0.1,0.5-0.1,0.7-0.1c1.2,0,2.2,0.8,2.6,1.9h0.2c0.8,1,2.3,1.2,3.4,0.6c0.7,0,1.3,0.2,1.8,0.7
			c0.6-1.4,2.3-2,3.7-1.4c0.3,0.1,0.5,0.3,0.8,0.5c0.8-1.3,2.4-1.8,3.8-1c0.1,0,0.2,0.1,0.2,0.2c0.3-1.2,1.3-2,2.5-2.1
			c0.4-1.1,1.4-1.9,2.6-1.9c0.2,0,0.5,0,0.7,0.1c0.8-1,2.1-1.6,3.4-1.6c0.9,0,1.7,0.3,2.5,0.7c0.2-0.1,0.4-0.1,0.7-0.1
			c1.1-0.7,2.5-0.9,3.8-0.6c0.2,0,0.4-0.1,0.6-0.1c0.9-1.6,2.6-2.6,4.5-2.6c1-2.6,3.9-3.8,6.5-2.8c1.5,0.6,2.7,2,3,3.6
			c0.1-0.2,0.2-0.5,0.4-0.8c3.7-8.8,5.6-18.3,5.6-27.8C427,61.7,425.1,52.3,421.4,43.5z M369.7,75.9l-2.4,9.7l0,0
			c-0.1,0.2-0.3,0.4-0.5,0.4c-0.2,0-0.3-0.1-0.4-0.2l0,0l-5.1-6.4h-10.7l-5.1,6.4l0,0c-0.2,0.2-0.5,0.3-0.7,0.1
			c-0.1-0.1-0.2-0.2-0.2-0.3l0,0l-2.4-9.7c-0.2-1.9,0.6-3.7,2-4.9c1.6-1.4,3.2-2.7,4.1-3.4c-0.1-1.1-0.1-2.3-0.1-3.4
			c0-8,1.6-16.8,7.8-27.5v-0.1v0.1v-0.1v0.1c6.2,10.7,7.8,19.6,7.8,27.5c0,1.2,0,2.3-0.1,3.4c1,0.8,2.6,2,4.1,3.4
			C369,72.2,369.8,74,369.7,75.9z"/>
		<g class="st1">
			<path class="st2" d="M167.6,167.9v27.8h-5.7H161l-14.3-18.6v18.6h-2h-4.1v-27.8h6.8l14.1,18.4v-18.4h3.1H167.6z"/>
			<path class="st2" d="M245.9,195.7v-27.8h6.1v27.8H245.9z"/>
			<path class="st2" d="M343.6,196.4c-2,0-3.9-0.4-5.7-1.2c-0.9-0.4-1.7-0.8-2.5-1.3c-0.8-0.5-1.5-1.1-2.2-1.8
				c-0.7-0.7-1.3-1.4-1.8-2.2c-0.5-0.8-1-1.6-1.3-2.5c-0.8-1.8-1.2-3.7-1.2-5.7s0.4-3.9,1.2-5.7c0.4-0.9,0.8-1.7,1.3-2.5
				c0.5-0.8,1.1-1.5,1.8-2.2c0.7-0.7,1.4-1.3,2.2-1.8c0.8-0.5,1.6-1,2.5-1.3c1.8-0.8,3.6-1.2,5.7-1.2c1.2,0,2.5,0.2,3.7,0.5
				c1.2,0.3,2.3,0.8,3.4,1.4c1.1,0.6,2,1.3,2.9,2.1c0.9,0.8,1.6,1.7,2.3,2.7l-5.1,3.3c-0.8-1.2-1.8-2.2-3.1-2.9
				c-1.3-0.7-2.6-1-4.1-1c-1.2,0-2.3,0.2-3.3,0.7s-1.9,1-2.7,1.8c-0.8,0.8-1.4,1.7-1.8,2.7c-0.4,1-0.7,2.1-0.7,3.3s0.2,2.3,0.7,3.3
				c0.4,1,1,1.9,1.8,2.7c0.8,0.8,1.7,1.4,2.7,1.8s2.1,0.7,3.3,0.7c1.4,0,2.8-0.3,4-0.9c1.2-0.6,2.2-1.5,3-2.6h-7.8v-6.1h15.6
				c0,0.6,0,1.2-0.1,1.6c0,0.4,0,0.8-0.1,1.1c0,0.3-0.1,0.6-0.1,0.8c-0.3,1.7-0.9,3.3-1.7,4.8c-0.8,1.5-1.9,2.8-3.2,3.9
				c-1.3,1.2-2.8,2-4.4,2.6C347.1,196.1,345.4,196.4,343.6,196.4z"/>
			<path class="st2" d="M460.6,167.9v27.8h-6.1v-12.2h-13.1v12.2h-6.1v-27.8h6.1v9.5h13.1v-9.5H460.6z"/>
			<path class="st2" d="M559.9,174h-8.3v21.7h-6.1V174h-8.2v-6.1h22.6V174z"/>
			<path class="st2" d="M646.7,196.1h-0.5c-1.1,0-2.2-0.2-3.3-0.4s-2.2-0.6-3.2-1c-1.1-0.5-2-1.1-2.8-1.8c-0.8-0.7-1.5-1.4-1.9-2.2
				l5.2-3c0.2,0.3,0.5,0.6,0.8,0.9c0.4,0.3,0.9,0.6,1.4,0.8c0.5,0.2,1.1,0.4,1.8,0.6s1.3,0.2,2,0.2h0.1h0.1c0.6,0,1.2,0,2-0.1
				c0.8-0.1,1.6-0.4,2.3-0.8c1.3-0.6,2-1.4,2.2-2.4c0-0.3,0-0.5-0.1-0.7c-0.1-0.2-0.2-0.3-0.3-0.4c-0.4-0.5-1.1-0.8-2-1.1
				c-1.1-0.3-2.4-0.5-3.9-0.5c-0.4,0-1,0-1.7-0.1c-0.8,0-1.6-0.2-2.5-0.4c-2.2-0.5-4-1.4-5.3-2.7c-1.4-1.4-2-3.2-1.9-5.3v0
				c0.1-1,0.3-2,0.7-2.8c0.4-0.9,1-1.7,1.7-2.3c1.2-1.2,2.8-2,4.7-2.5c1.2-0.3,2.5-0.5,3.9-0.5c1.4,0,2.7,0.2,4,0.5
				c1.5,0.4,2.8,0.9,3.9,1.6c1.1,0.7,1.9,1.5,2.6,2.4l-5.1,3.2c-0.1-0.2-0.4-0.5-0.9-0.8s-1.1-0.5-1.9-0.7c-0.8-0.2-1.6-0.3-2.5-0.3
				s-1.6,0.1-2.3,0.3c-0.6,0.1-1.1,0.3-1.5,0.5c-0.3,0.2-0.6,0.4-0.8,0.7c-0.2,0.2-0.3,0.4-0.3,0.6c0,0.2-0.1,0.4-0.1,0.4
				c0,0.3,0,0.5,0.1,0.6c0.1,0.1,0.1,0.2,0.2,0.3c0.4,0.4,1,0.7,1.9,0.9c0.9,0.2,2,0.3,3.1,0.3c2.3,0,4.3,0.3,6.1,0.9
				c1.8,0.6,3.2,1.5,4.3,2.6c0.7,0.8,1.2,1.6,1.5,2.6c0.3,0.9,0.4,2,0.3,3c-0.1,1.6-0.7,3-1.6,4.2c-0.9,1.2-2.2,2.2-3.9,3
				c-1,0.5-2.1,0.9-3.3,1.1S647.8,196.1,646.7,196.1z"/>
		</g>
	</g>
</g>
</svg>
