<svg xmlns="http://www.w3.org/2000/svg" viewBox="0 0 944.61 156.1"><defs><style>.cls-1{fill:#fff;}</style></defs><g id="Layer_2" data-name="Layer 2"><g id="Layer_1-2" data-name="Layer 1"><path class="cls-1" d="M73.73,28.08c-8.43,0-14.83,8.38-14.83,8.38a36,36,0,0,0-18.16-4.82c-18.31,0-33.15,13.21-33.15,29.51a26.87,26.87,0,0,0,4.09,14.21c-4,1.57-9.09,5.49-9.09,15.29,0,7.74,5.2,11.95,10.55,14.25C5.06,110.29,0,118,0,126.6c0,16.29,18.24,29.5,40.74,29.5s40.75-13.21,40.75-29.5S63.25,97.09,40.74,97.09H26.9s-11.82.29-11.82-6.44,4.12-6.58,7.36-4.9h0a36.05,36.05,0,0,0,18.3,4.9c18.32,0,33.16-13.21,33.16-29.5a27.1,27.1,0,0,0-5.68-16.52c-1-1.4-1.68-2.28-1.79-3.11a2.89,2.89,0,0,1,.9-2.46c6.61-6.42,9-4.45,9.72-3.15a.57.57,0,0,1-.4.84c-1.4.24-4.41,1.17-4.41,4.6,0,5.84,6.64,5.69,6.64,5.69,7.32,0,7.28-7.46,7.28-7.46C86.16,32.47,80.1,28.08,73.73,28.08ZM67,126.6c0,10.48-11.74,19-26.22,19s-26.21-8.5-26.21-19,11.73-19,26.21-19S67,116.11,67,126.6ZM40.74,80.13c-11.78,0-21.33-8.5-21.33-19s9.55-19,21.33-19,21.34,8.5,21.34,19S52.53,80.13,40.74,80.13Z"/><path class="cls-1" d="M137.21,104.54c-8.75,1.7-14.07,8.1-14.07-12.14h0V34.85c.09-2.82-2.65-3.34-5.61-3.32h0c-7.39,0-16.41-3.44-20.18-3.44-7.19-.77-7.88,9.35-1.84,10.46a4.88,4.88,0,0,0,2.76-.38c7.09-3,13-1.07,13,5.39V92.4c0,20.4-5.32,13.84-14.08,12.14-7.48-1.54-9.56,10.58.12,10.53,3.76,0,12.48-3.66,19.87-3.66s16.11,3.66,19.87,3.66C146.78,115.12,144.7,103,137.21,104.54Z"/><path class="cls-1" d="M196.45,104.54c-8.75,1.7-14.07,8.1-14.07-12.14V6.76c.11-3.66-4.53-3.43-8.22-3.21C167.34,2.94,160,0,156.59,0c-9.67-.06-7.6,12.07-.11,10.53,8.75-1.7,13.31-7.85,14.07,12.14h0V92.4c0,20.4-5.33,13.84-14.08,12.14-7.49-1.54-9.56,10.58.11,10.53,3.77,0,12.49-3.66,19.88-3.66s16.1,3.66,19.87,3.66C206,115.12,203.94,103,196.45,104.54Z"/><ellipse class="cls-1" cx="117.23" cy="12.97" rx="10.31" ry="9.17" transform="translate(25.17 86.69) rotate(-45)"/><path class="cls-1" d="M606.49,28.08c-8.43,0-14.83,8.38-14.83,8.38a36,36,0,0,0-18.16-4.82c-18.31,0-33.16,13.21-33.16,29.51a26.88,26.88,0,0,0,4.1,14.21c-4,1.57-9.09,5.49-9.09,15.29,0,7.74,5.2,11.95,10.55,14.25-8.08,5.39-13.14,13.11-13.14,21.7,0,16.29,18.24,29.5,40.74,29.5s40.75-13.21,40.75-29.5S596,97.09,573.5,97.09H559.66s-11.82.29-11.82-6.44,4.12-6.58,7.36-4.9h0a36.05,36.05,0,0,0,18.3,4.9c18.32,0,33.16-13.21,33.16-29.5A27.1,27.1,0,0,0,601,44.63c-1-1.4-1.68-2.28-1.79-3.11a2.89,2.89,0,0,1,.9-2.46c6.61-6.42,9-4.45,9.72-3.15a.57.57,0,0,1-.4.84C608,37,605,37.92,605,41.35c0,5.84,6.63,5.69,6.63,5.69,7.32,0,7.29-7.46,7.29-7.46C618.92,32.47,612.86,28.08,606.49,28.08Zm-6.77,98.52c0,10.48-11.74,19-26.22,19s-26.22-8.5-26.22-19,11.74-19,26.22-19S599.72,116.11,599.72,126.6ZM573.5,80.13c-11.78,0-21.33-8.5-21.33-19s9.55-19,21.33-19,21.34,8.5,21.34,19S585.29,80.13,573.5,80.13Z"/><path class="cls-1" d="M672,29.87A21.53,21.53,0,0,0,655.9,37v-.9a4.77,4.77,0,0,0-4.77-4.77H650c-7.39,0-16.11-1.27-19.88-1.27A5.32,5.32,0,1,0,630,40.61a22.22,22.22,0,0,0,3.66-1,8.33,8.33,0,0,1,3.62-1.05,6.32,6.32,0,0,1,3.21.52c1.63.9,3.06,3.48,3.59,7.13V94.4h0c-.77,20-5.33,13.84-14.08,12.14-7.49-1.54-9.56,10.58.11,10.53,3.77,0,12.49-3.66,19.88-3.66s16.1,3.66,19.87,3.66c9.68.05,7.6-12.07.11-10.53-8.75,1.7-13.31,7.85-14.07-12.14h0V63.15h0V57.61c2.29-22.86,33.93-22,29.38-4.18-1.53,4.14,2.87,6.94,5.9,6.46,3.41-.54,6.43-4.68,6.43-9.55C697.61,29.05,672,29.87,672,29.87Z"/><path class="cls-1" d="M779.26,106c-3.19.49-4.37,1.89-7.27,2.11-4.21.36-5.93-2.58-6.8-7.77v-49c-1.88-36.06-63.26-23.57-60.27-2.3.84,6,1.48,9.52,6.52,9.52,4.53,0,7.43-2.32,5.91-6.46-3.76-15.05,35.15-20.09,36,1.82h0c0,13.5-21.77,13.43-21.77,13.43s-33.15-.15-33.15,26.1c0,0,0,23.4,33.15,23.4,12.5,0,18.5-2.77,21.79-6.29a4.76,4.76,0,0,0,4.76,4.74c7.34-.13,17.13,1.26,21,1.27A5.31,5.31,0,1,0,779.26,106Zm-47.68-1.23c-23.09,0-21.76-12-21.76-12,0-13.49,21.76-13.42,21.76-13.42s12.19,0,21.79-5.77v19C749.91,98.43,743.42,104.81,731.58,104.81Z"/><path class="cls-1" d="M204.2,73.36c.21,44.06,52.3,60.48,72.5,21.19,1-2,4.44-7.77,1.58-10.62a7.44,7.44,0,0,0-7.08-1.36c-1.65.67-4.7,5.27-4.94,5.73-.61,1-9.09,15.26-23.36,15.26-12.52,0-23-9.61-26-22.63a3.72,3.72,0,0,1,3.68-4.46c18.53-2.74,37.64-2.08,56.23,0,5.31,0,4.65-7.17,4.65-7.17C275.25,14.55,205.76,18.29,204.2,73.36ZM267,64.87q-23.34-.68-46.69,0a2.29,2.29,0,0,1-2.13-3.09c4.09-10.82,13.62-18.4,24.74-18.4,11.62,0,21.52,8.3,25.26,19.91A1.23,1.23,0,0,1,267,64.87Z"/><path class="cls-1" d="M883.7,76.47c18.53-2.74,37.64-2.08,56.23,0,5.31,0,4.65-7.17,4.65-7.17-6.19-54.75-75.67-51-77.23,4.06.21,44.06,52.3,60.48,72.5,21.19,1-2,4.44-7.77,1.58-10.62a7.44,7.44,0,0,0-7.08-1.36c-1.65.67-4.7,5.27-4.94,5.73-.61,1-9.09,15.26-23.36,15.26-12.52,0-23-9.61-26-22.63A3.72,3.72,0,0,1,883.7,76.47Zm-2.39-14.69c4.09-10.82,13.62-18.4,24.74-18.4,11.62,0,21.52,8.3,25.26,19.91a1.23,1.23,0,0,1-1.18,1.58q-23.34-.68-46.69,0A2.29,2.29,0,0,1,881.31,61.78Z"/><path class="cls-1" d="M324.05,67.33v0s-21.77.07-21.77-13.43c0,0-1.33-12,21.77-12h0c16,0,19.75,5.78,20.54,9.33a56.71,56.71,0,0,1-1.75,11.92c-.44,2.8,2.21,5.11,5,5.22s6-2.25,5.57-5.22a61.87,61.87,0,0,1,0-28.18,4.88,4.88,0,0,0-4.5-5.07c-2.84-.3-6.15,1.85-6.09,4.94-3.91-2.9-8.94-5-18.79-5h0c-33.16,0-33.16,23.39-33.16,23.39,0,26.26,33.16,26.12,33.16,26.12h0s21.77-.07,21.77,13.42c0,0,1.33,12-21.77,12-19.59,0-24.26-8.64-25.23-11.27a56.75,56.75,0,0,1,1.64-10c.43-2.8-2.22-5.11-5-5.21-3-.11-6,2.24-5.58,5.21a61.54,61.54,0,0,1,0,28.19,4.9,4.9,0,0,0,4.5,5.07c2.89.3,6.26-1.92,6.1-5.07l-.15-.64c5.43,3.3,13.05,5.74,23.74,5.74,33.16,0,33.16-23.4,33.16-23.4C357.21,67.2,324.05,67.33,324.05,67.33Z"/><path class="cls-1" d="M471.83,49.29c-2.83,5.61,3.73,10.13,8.4,5.45,2.48-2.48,5.82,0,6.52,1.59a3.61,3.61,0,0,1-1.11,4.45s-9.49,8.29-17.57,1.62a39.81,39.81,0,0,0-4.48-3.08c-3.82-2.22-8.7-1.73-10.5.74-2.21,3-.83,7.15,3.08,10.13h0c19.93,12.28,5.35,34.68-16.64,34.14h0c-13.8,0-27-8.76-27-19.55,0-10.59,12.75-19.19,26.18-19.52.27,0,.53,0,.79,0v-.06a6.11,6.11,0,1,0,0-12v-.07c-.26,0-.52,0-.79,0-12-.37-23.53-8.95-23.53-19.51,0-10.8,12-19.55,24.32-19.55h0a24.8,24.8,0,0,1,11.28,2.67,35.4,35.4,0,0,1,4.35,2.8A13,13,0,0,1,458.78,23a5.65,5.65,0,0,1,.63,5.39,7.29,7.29,0,0,1-3.52,3.05c-1.24.64-2.53,1.31-2.88,2.78a4.66,4.66,0,0,0,1.1,3.58,5.49,5.49,0,0,0,1.37,1.45,10.91,10.91,0,0,0,9.79,1.6A17.24,17.24,0,0,0,472.38,37a9.5,9.5,0,0,0,2.88-8.32C472.52,13.55,457.57,2,439.53,2c-20,0-36.17,14.17-36.17,31.65,0,10.05,5.38,19,13.74,24.79-10.87,5.68-18,15.35-18,26.34,0,17.47,18.12,31.64,40.46,31.64,26.25,0,47.41-19.82,38.28-41.81,10.09-.58,21.61-8.52,18.85-20.33C494.2,43.81,475.81,41.39,471.83,49.29Z"/><path class="cls-1" d="M822.53,30.25c-21.18,0-38.34,19.33-38.34,43.18s17.16,43.18,38.34,43.18c14.77,0,27.57-9.42,34-23.21,2-4,0-8.41-3.09-9.44-2.45-.8-5.64.48-7.3,3.34-4.44,9.57-13.33,16.11-23.58,16.11-14.7,0-26.62-13.42-26.62-30s11.92-30,26.62-30c9.08,0,17.09,5.14,21.89,13,.81,1.33.86,3.12-1.46,5a6,6,0,0,0-1.76,7,7.21,7.21,0,0,0,5.43,4.29,8.73,8.73,0,0,0,8.3-2.51,11.49,11.49,0,0,0,3.91-7,11.27,11.27,0,0,0-.39-4.76C852.23,41.67,837.73,30.25,822.53,30.25Z"/></g></g></svg>