<svg xmlns="http://www.w3.org/2000/svg" viewBox="0 0 486.84 259.14"><defs><style>.cls-1{fill:#f1f2f2;}.cls-2,.cls-3{fill:#fff;}.cls-3,.cls-4{fill-rule:evenodd;}.cls-4{fill:#00ff7f;}</style></defs><g id="Layer_2" data-name="Layer 2"><g id="Layer_1-2" data-name="Layer 1"><path class="cls-1" d="M64.15,77.1a20.69,20.69,0,0,0,40.35-6.3V11.25a8.33,8.33,0,0,1,16.65,0V70.8A37.28,37.28,0,0,1,48.4,82.2a8.06,8.06,0,0,1,5.25-10.35A8.16,8.16,0,0,1,64.15,77.1Z"/><path class="cls-1" d="M188.8,108a43.28,43.28,0,0,1-43.35-43.35V11.25A8.13,8.13,0,0,1,153.7,3a8.35,8.35,0,0,1,8.4,8.25v53.4a26.7,26.7,0,1,0,53.4,0V11.25A8.26,8.26,0,0,1,223.9,3a8.13,8.13,0,0,1,8.24,8.25v53.4A43.36,43.36,0,0,1,188.8,108Z"/><path class="cls-1" d="M261,11.25A8.13,8.13,0,0,1,269.2,3a8.35,8.35,0,0,1,8.4,8.25v88.5a8.35,8.35,0,0,1-8.4,8.25A8.13,8.13,0,0,1,261,99.75Z"/><path class="cls-1" d="M301,54c.15-29.7,25.05-53.85,55.05-54a56.06,56.06,0,0,1,34.64,11.7,8.87,8.87,0,0,1,1.5,12,8.78,8.78,0,0,1-12,1.65,37.39,37.39,0,0,0-24.15-8.25,39.7,39.7,0,0,0-27,10.8A37,37,0,0,0,318.1,54a36.47,36.47,0,0,0,10.95,26.1,39.7,39.7,0,0,0,27,10.8,37.68,37.68,0,0,0,24.15-8.25,9.09,9.09,0,0,1,12,1.65,8.85,8.85,0,0,1-1.5,12A56.06,56.06,0,0,1,356.05,108C326.05,108,301.15,83.85,301,54Z"/><path class="cls-1" d="M421.3,99.75V11.25A8.13,8.13,0,0,1,429.55,3H478.6a8.31,8.31,0,0,1,8.24,8.25,8.45,8.45,0,0,1-8.24,8.4H438V47.1H472.9a8.33,8.33,0,0,1,0,16.65H438v27.6H478.6a8.33,8.33,0,0,1,0,16.65H430c-.3,0-.3-.15-.3-.15l-.15.15A8.23,8.23,0,0,1,421.3,99.75Z"/><path class="cls-2" d="M190.71,231.24v-88.5a8.23,8.23,0,0,1,8.25-8.25h21.3a28.5,28.5,0,0,1,22.8,45.6,32.13,32.13,0,0,1-16.95,59.4H199.56a.15.15,0,0,1-.15-.15c-.3,0-.3.15-.45.15A8.32,8.32,0,0,1,190.71,231.24Zm16.65-56.1h12.9A12,12,0,0,0,232.11,163a11.78,11.78,0,0,0-11.85-11.85h-12.9Zm0,47.7h18.75a15.53,15.53,0,0,0,0-31.05H207.36Z"/><path class="cls-2" d="M481.86,148.74l-28.5,38.7,28.5,39a8.15,8.15,0,0,1-1.8,11.4,8.43,8.43,0,0,1-4.8,1.65,8.6,8.6,0,0,1-6.75-3.45l-25.2-34.65L418,236a8.54,8.54,0,0,1-6.6,3.45,7.75,7.75,0,0,1-4.8-1.65,8.18,8.18,0,0,1-1.95-11.4l28.5-39-28.5-38.7a8.16,8.16,0,0,1,1.95-11.4,7.78,7.78,0,0,1,11.4,1.8l25.35,34.5,25.2-34.5a8,8,0,0,1,11.55-1.8A8.13,8.13,0,0,1,481.86,148.74Z"/><path class="cls-3" d="M278.13,202.37a49.56,49.56,0,0,1,12.29-32.86c9.16-10.18,22.32-15.72,35.43-18.62,11.79-2.61,29.3-2.06,41.71-7.95a56.49,56.49,0,0,0-89.41,60.47C278.14,203.07,278.13,202.72,278.13,202.37Z"/><path class="cls-3" d="M383.19,162.68c-.53,2-1.09,3.94-1.68,5.9-8,26.51-22.09,52.78-47.32,66.26-5.65,3-11.66,4.74-17.77,6.4a56.48,56.48,0,0,0,66.77-78.56Z"/><path class="cls-4" d="M365,160.87c-15.37,9.46-34.44,10.35-49.77,19.79-14.36,8.85-24.06,24.59-26.34,41.31-5.09-2.94-6.6-9.59-6.6-15.47a49.56,49.56,0,0,1,12.29-32.86C303.7,163.46,316.86,157.92,330,155c16.75-3.7,45-1,53.86-19.49a142.45,142.45,0,0,1-6,29.38c-8,26.51-22.1,52.77-47.32,66.26-6.78,3.62-14.07,5.38-21.43,7.39-10.15,2.77-8.39,12-13.11,19.57-.69,1.13-1.13,1.22-2.37.75-1-.37-1.15-.67-1.16-1.3s1-21.61,2.27-32.36c2-17,9.34-31,23.86-40.46C333.3,175.13,351.35,172.43,365,160.87Z"/><path class="cls-2" d="M11.28,10.75H1.15A1.18,1.18,0,0,1,0,9.54,1.17,1.17,0,0,1,1.15,8.39H23.71a1.17,1.17,0,0,1,1.16,1.15,1.19,1.19,0,0,1-1.16,1.21H13.58V40.84a1.15,1.15,0,1,1-2.3,0Z"/><path class="cls-2" d="M53.33,26.35H36.05V40.84A1.18,1.18,0,0,1,34.85,42a1.17,1.17,0,0,1-1.15-1.16V9.54a1.16,1.16,0,0,1,1.15-1.15,1.18,1.18,0,0,1,1.2,1.15V24H53.33V9.54a1.18,1.18,0,0,1,2.35,0v31.3a1.18,1.18,0,0,1-2.35,0Z"/><path class="cls-2" d="M67.73,9.54a1.17,1.17,0,0,1,1.15-1.15H86.16a1.14,1.14,0,0,1,1.15,1.15,1.15,1.15,0,0,1-1.15,1.21H70.08V24H84.15a1.18,1.18,0,0,1,1.15,1.2,1.16,1.16,0,0,1-1.15,1.15H70.08V39.64H86.16a1.18,1.18,0,0,1,0,2.36H68.78a1.16,1.16,0,0,1-1-1.16Z"/></g></g></svg>