<svg xmlns="http://www.w3.org/2000/svg" viewBox="0 0 855.36 353.2"><defs><style>.cls-1{fill:#fff;}</style></defs><g id="Layer_2" data-name="Layer 2"><g id="Layer_1-2" data-name="Layer 1"><path class="cls-1" d="M225.47,45.16c-2.11,8.3,4.32,15.58,12.4,16.27a30.06,30.06,0,0,0,21.37-7.07c7.11-6.39,8.65-17.3,5.83-26.29-7.38-23.39-38-24-57.89-19-15.83,4-29.1,13.32-39.81,25.4C159,44,153.89,56.09,149.13,67.7c-5.25,12.8-10.37,25.62-16.13,38.2-11.57,25.28-25,49.83-41.33,72.34-3.38,4.65-7.09,9.44-11,14.21l.23.06a258.51,258.51,0,0,1,47.27,18.17c12.05,5.88,24.53,11.4,37.7,14.23,25.89,5.57,57.36-.84,72.43-24.45,6.1-9.55,10.75-22,6.05-32.72-3.24-7.4-12.05-11.31-20.06-10.57-7.4.69-14.56,3.85-18.77,9.92-3.75,5.43-7.54,17.42-1.58,22.31,3.15,2.58,9.62.89,12.78-1.25s4.71-5.77,6.32-8.91a3.43,3.43,0,0,1,1.22-1.57,2.47,2.47,0,0,1,1.92.08,1.92,1.92,0,0,1,.67,1.4,3.87,3.87,0,0,1-.46,1.57A34.45,34.45,0,0,1,212,197.07c-5.73,3.27-13.55,5-18.22-1a13.6,13.6,0,0,1-2.53-8.93c.62-16.39,14.82-30.09,28.86-36.71C227,147.24,255,139,263.64,162.84c7.89,21.71-26.15,62.34-70.21,74.81-27.55,7.79-55.94,2.31-79.38-12.78-20-12.85-42.73-21.74-42.73-21.74-19.26,21-44.25,42.49-62.2,37-5.4-1.66-9.71-7.2-9-13.12,2.57-23.23,36.88-37.35,66.4-35.82l1.31,0c4.2-5.93,7.94-12.74,12.54-20.58,13.43-22.88,22-48.19,31.22-72.91C128.77,51.65,164,4.35,217.11.34,235.6-1,262.92,1.19,274.35,19c.48.75.92,1.5,1.31,2.25,9.64,18.39-4.13,34.9-20.91,42.35-9.6,4.25-21.79,6-31.87,2.48-6-2.15-11.32-6.61-12.63-13.12-2.93-14.39,11.89-21.72,23.9-21.23,1.54.06,2.69.48,3.27,2a1.41,1.41,0,0,1-.85,2C231.22,37.07,227,39.31,225.47,45.16ZM63.11,200.43c-6.75-3.88-29.75-3.26-45,10.14-3.48,3.05-6.9,7.41-7.27,12.2s3.06,18.42,31,.12C51.05,216.88,57.32,209.76,63.11,200.43Z"/><path class="cls-1" d="M355.24,171.65c-11.9,15-36.39,45.71-50.84,55.45s-30.67,12-37.95,4.73c-7.9-7.87-1.83-20,2-27.91l25.34-52.25a6.79,6.79,0,0,1,4.42-3.65c5.62-1.42,13.59-5.68,16.78-10.54,1-1.51,2.21-1.91,3.29-1.35a2.13,2.13,0,0,1,.78,3s-34,68.18-34,68.22c-2.34,4.7-4.35,13.05.34,17.34,4,3.63,9.93,1.68,14.17-.39a57,57,0,0,0,12.18-8.55c12.62-11,36.89-42.55,41-46.52a1.71,1.71,0,0,1,2.88.91A1.81,1.81,0,0,1,355.24,171.65Zm-36.68-69.41c-1.65-4.77.08-10.17,3.2-13.93a15.82,15.82,0,0,1,6.11-4.44c2.43-.91,5-.86,6.74,1.37s2,5.44,1.6,8.12c-.77,5.34-4.4,10.91-9.72,12.64a6.53,6.53,0,0,1-5.5-.48A6.31,6.31,0,0,1,318.56,102.24Z"/><path class="cls-1" d="M349.81,207.43c-2.35,4.7-4.36,13,.34,17.34,4,3.63,9.93,1.68,14.17-.39a56.92,56.92,0,0,0,12.17-8.55c12.62-11,36.89-42.55,41-46.52a1.71,1.71,0,0,1,2.88.91,1.81,1.81,0,0,1-.36,1.47c-11.9,15-36.39,45.71-50.84,55.45s-30.68,11.86-37.59,4.7c-7.75-8-2.19-19.92,1.66-27.88,2.43-5,67.8-138.06,68.73-140a6.82,6.82,0,0,1,4.42-3.65c5.62-1.42,13.58-5.67,16.77-10.53,1-1.52,2.22-1.91,3.3-1.35a2.12,2.12,0,0,1,.78,3Z"/><path class="cls-1" d="M416.57,207.43c-2.35,4.7-4.35,13,.34,17.34,4,3.63,9.93,1.68,14.17-.39a57,57,0,0,0,12.18-8.55c12.61-11,36.88-42.55,40.95-46.52a1.71,1.71,0,0,1,2.88.91,1.81,1.81,0,0,1-.36,1.47c-11.9,15-36.39,45.71-50.84,55.45s-30.68,11.86-37.59,4.7c-7.75-8-2.18-19.92,1.67-27.88,2.42-5,67.79-138.06,68.72-140a6.81,6.81,0,0,1,4.43-3.65c5.61-1.42,13.58-5.67,16.77-10.53,1-1.52,2.21-1.91,3.29-1.35a2.12,2.12,0,0,1,.78,3Z"/><path class="cls-1" d="M610.65,139.36,608.32,144l0,0-49,92c-13.36,24.58-27.46,48.95-45.87,70.07a206.68,206.68,0,0,1-29.92,28.63C472.76,343,460.2,351.22,446.53,353c-7.93,1-16.62-1.3-19.94-9.31-2.21-5.31-1.59-11.47.49-16.83,3-7.68,8.55-15.12,14.21-21a112.84,112.84,0,0,1,25.64-19.44c14.84-8.47,60.74-31.69,67-34.61l20.27-39.19a139.89,139.89,0,0,1-10.41,11,52.6,52.6,0,0,1-15.23,10.08c-6.14,2.5-13.21,3.81-19.26.39a17.21,17.21,0,0,1-8.62-13.9c-.49-9.16,4.07-18.14,8.21-26,5.47-10.41,11.7-21,15.49-32.15,1.88-5.53,1.33-13.6-5.56-15s-13.27,4.09-17.5,8.91c-2.09,2.39-16.15,17.67-19.15,21.93l-2.44-1.72c3.39-4.87,18.44-21.6,20.82-23.81,5.58-5.2,11.06-9.67,18.14-12.7,6.44-2.76,15-3.76,20.68,1.13,9.06,7.79,3.73,21-.24,29.88-4.38,9.76-9.8,19-14.37,28.69-3.34,7.05-9.19,18.32-2.88,25.33,3.61,4,10.24,3.67,14.53,1.15,5.6-3.31,10.51-8.26,14.73-13.07,8.4-9.63,14.45-22.15,20.29-33.45q5.12-9.87,10.22-19.76l3.7-7.62a6.78,6.78,0,0,1,4.43-3.65c5.61-1.42,13.58-5.68,16.77-10.53,1-1.52,2.21-1.91,3.29-1.35A2.12,2.12,0,0,1,610.65,139.36Zm-79.23,118c-7.35,4-20,9.68-27.41,13.66-3.94,2.12-8,4-11.85,6.31-5.07,3.05-10.08,6.25-14.91,9.65-15.4,10.82-33.6,24.68-33.33,45.61.05,3.92.75,6.63,3.63,9.38a11.91,11.91,0,0,0,9.12,3.36c9.07-.73,18.05-7.83,24.73-13.24,9.09-7.35,16-18,22.38-27.69,6.54-9.9,12.54-20.36,18.27-30.62C524.68,269.08,531.22,257.72,531.42,257.37Z"/><path class="cls-1" d="M660.83,61.35A20.11,20.11,0,0,1,659.18,65h0c-.06.11-.13.22-.2.33s-.05.09-.07.13a103,103,0,0,1-9.16,12.31c-7.82,8.69-15.48,13.68-20.41,13.68a.77.77,0,0,1-.87-.87c0-.48-.4-1.06,1.34-1.73a34.63,34.63,0,0,0,9.82-6c2.94-2.56,4.37-4.71,4.37-6.44,0-.48-.73-.92-1.38-1h0a6,6,0,0,1-3.44-1.55c-4.3-4-.77-11.55,2.24-15.24a22.36,22.36,0,0,1,8.49-6.5c4.82-2,11.35-2.08,11.59,4.71A13.66,13.66,0,0,1,660.83,61.35Z"/><path class="cls-1" d="M718.92,142h-.08a14.77,14.77,0,0,0-13.2,7.28l-.71,1.21c-8.39,14.66,9.39,31.23,2.19,55.31-11.67,39.05-64.33,37.35-78.94,20.1-8.06-9.52-3.54-33.46,19.07-32.51,0,0,4.45,1,4.26,1.17,5.85,2.87,6.1,11.57,2.09,16-3.68,4.1-10.43,4.91-14.39.8,0,0-5.83,7.67-.54,14.4,6.15,7.82,17.82,8.76,27,6.29,25.31-6.82,26.07-27.92,23-40.31-6.26-25.2,3.56-39.17,13.37-46.94-.5.18-1,.36-1.51.56-10,3.86-19.16,10.17-27.24,17.05A130.37,130.37,0,0,0,661,174.38a1.89,1.89,0,0,1-2.51-.22c-.67-.67-.2-2.09.4-2.77,1.28-1.44,3.06-3.07,4.44-4.42a129.13,129.13,0,0,1,22.51-17.91c8-4.94,17-9.06,26.46-10.17a6.31,6.31,0,0,1,.76-.09h.34a40.63,40.63,0,0,1,5.52-.16C721.07,138.73,721.08,142.09,718.92,142Z"/><path class="cls-1" d="M32.2,304.51c0-2.65-2.91-3.77-9.51-3.77-10.45,0-14.94-2.77-14.94-9.45S13,280.92,23,280.92c9.12,0,15.2,4.23,15.2,10.57H31.54c0-2.78-3.44-4.63-8.59-4.63-5.62,0-8.59,1.52-8.59,4.43,0,2.51,2.64,3.5,8.92,3.5,10.9,0,15.53,3,15.53,9.72,0,7-5.55,10.77-15.86,10.77-9.52,0-15.86-4.23-15.86-10.57H13.7c0,2.77,3.7,4.62,9.25,4.62C29,309.33,32.2,307.61,32.2,304.51Z"/><path class="cls-1" d="M66.89,287.52v7.6H86.06v5.95H66.89v7.6H92.67v5.95H60.28v-33H92.67v5.94Z"/><path class="cls-1" d="M111.83,314.62l13.54-33h9.92l13.54,33H141.7L139,308H121.54l-2.71,6.61Zm24.71-12.56-5.95-14.54h-.66L124,302.06Z"/><path class="cls-1" d="M194.1,295.12v5.95H175.59v13.55H169v-33h31.73v5.94H175.59v7.6Z"/><path class="cls-1" d="M222.18,281.58H246c5.95,0,9.91,4,9.91,9.91a9.13,9.13,0,0,1-8.66,9.52,9.89,9.89,0,0,1,1.19,1.58l7.47,12h-7.47L240,301.07H228.79v13.55h-6.61ZM246,295.12a3.12,3.12,0,0,0,3.3-3.3v-1a3.13,3.13,0,0,0-3.3-3.31H228.79v7.6Z"/><path class="cls-1" d="M309.41,298.1c0,9.91-7.27,17.18-17.19,17.18S275,308,275,298.1s7.27-17.18,17.18-17.18S309.41,288.19,309.41,298.1Zm-6.94,0c0-6.28-4.3-10.91-10.25-10.91S282,291.82,282,298.1s4.3,10.9,10.24,10.9S302.47,304.38,302.47,298.1Z"/><path class="cls-1" d="M337.49,291.82v22.8h-6.61v-33h5.95l20.48,22.8v-22.8h6.61v33H358Z"/><path class="cls-1" d="M384.73,281.58h33v5.94H404.56v27.1H398v-27.1H384.73Z"/><path class="cls-1" d="M579.35,301.07h7.07c-1.32,8.4-8.07,14.21-17,14.21-9.91,0-17.18-7.27-17.18-17.18s7.27-17.18,17.18-17.18c8.92,0,15.67,5.81,17,14.2h-7.07a10,10,0,0,0-9.92-7.93c-5.95,0-10.24,4.63-10.24,10.91s4.29,10.9,10.24,10.9A10,10,0,0,0,579.35,301.07Z"/><path class="cls-1" d="M640.6,298.1c0,9.91-7.27,17.18-17.18,17.18S606.24,308,606.24,298.1s7.27-17.18,17.18-17.18S640.6,288.19,640.6,298.1Zm-6.94,0c0-6.28-4.29-10.91-10.24-10.91s-10.24,4.63-10.24,10.91,4.29,10.9,10.24,10.9S633.66,304.38,633.66,298.1Z"/><path class="cls-1" d="M687.19,295.12v5.95H668.68v13.55h-6.61v-33h31.72v5.94H668.68v7.6Z"/><path class="cls-1" d="M740.38,295.12v5.95h-18.5v13.55h-6.61v-33H747v5.94H721.88v7.6Z"/><path class="cls-1" d="M775.07,287.52v7.6h19.17v5.95H775.07v7.6h25.78v5.95H768.46v-33h32.39v5.94Z"/><path class="cls-1" d="M829.59,287.52v7.6h19.16v5.95H829.59v7.6h25.77v5.95H823v-33h32.38v5.94Z"/></g></g></svg>