<svg xmlns="http://www.w3.org/2000/svg" viewBox="0 0 400.47 198.97"><defs><style>.cls-1{fill:#fff;}</style></defs><g id="Layer_2" data-name="Layer 2"><g id="Layer_1-2" data-name="Layer 1"><path class="cls-1" d="M373.24,179.78A259.15,259.15,0,0,1,350.34,151c-.42-.61-.77-1.18-1.08-1.7a7.77,7.77,0,0,0-1.09-1.39c-.62-.82-1.19-1.6-1.7-2.32a16.18,16.18,0,0,1-1.39-2.32c-1.45-2.06-2.84-4.13-4.18-6.19s-2.63-4.12-3.87-6.19q-4.33-7.11-8.82-13.3a47.46,47.46,0,0,0-11-10.83A61.46,61.46,0,0,0,344,87,49.21,49.21,0,0,0,354.67,55.7q0-24.75-19-40.23T293.4,0H213.13L135.9,158.12,79.15,0H21.9V6.84a43.73,43.73,0,0,1,20.69,5.23A40.17,40.17,0,0,1,58,26.61l-29.84,142a12.72,12.72,0,0,1-1.06,3.72c-.56,1.23-1.23,2.58-2,4a39.64,39.64,0,0,1-9,11q-5.88,5.12-11.75,5.11H0V199H58.6v-6.5H54.77a10.53,10.53,0,0,1-9.18-4.8,28.77,28.77,0,0,1-4.49-10.36,19.38,19.38,0,0,1-.28-4.18c0-1.34.16-2.63.3-3.87L66.65,48l54.19,151h8.66L208.31,38.06l-.13,131.51c0,.21-.06.52-.11.93a2.65,2.65,0,0,0,.16,1.24,30.19,30.19,0,0,1-.52,3.09,12.4,12.4,0,0,1-1.14,3.1,32.19,32.19,0,0,1-6.59,9.9,13.5,13.5,0,0,1-10,4.64H185.4V199h72.19v-6.5h-3.85a14.42,14.42,0,0,1-11.43-5.42A29.73,29.73,0,0,1,236,175.14a12.16,12.16,0,0,1-.82-3.56c-.07-1.13-.15-2.21-.23-3.25L235,24.14v-9h48.79q18.87,0,30.79,13t11.91,29.09a40.87,40.87,0,0,1-2.94,15.16A38.17,38.17,0,0,1,314.14,86a42.59,42.59,0,0,1-10.68,7.68,39,39,0,0,1-12.66,3.39A128,128,0,0,1,278,98H257.84v13.59h20.41c10.22.11,20.35,6.85,26.45,15a256.51,256.51,0,0,1,19.95,31.25c.21.42.47.88.78,1.39s.57,1,.77,1.4c.41.62.82,1.29,1.24,2s.82,1.5,1.24,2.32q5.26,9.6,11,18.72A86.76,86.76,0,0,0,351.58,199h48.89v-6.5Q385,192.47,373.24,179.78Z"/></g></g></svg>