<svg xmlns="http://www.w3.org/2000/svg" xmlns:xlink="http://www.w3.org/1999/xlink" viewBox="0 0 279.63 71.67"><defs><style>.cls-1,.cls-2,.cls-3{fill:#fff;}.cls-1{filter:url(#luminosity-invert-noclip);}.cls-3{filter:url(#luminosity-invert-noclip-3);}.cls-4{fill:#2b2e70;}.cls-5{mask:url(#mask);}.cls-6{mask:url(#mask-2);}.cls-7{mask:url(#mask-3);}.cls-8{filter:url(#luminosity-invert-noclip-2);}</style><filter id="luminosity-invert-noclip" x="48.11" y="25.88" width="46.12" height="45.54" filterUnits="userSpaceOnUse" color-interpolation-filters="sRGB"><feColorMatrix values="-1 0 0 0 1 0 -1 0 0 1 0 0 -1 0 1 0 0 0 1 0" result="invert"/><feFlood flood-color="#fff" result="bg"/><feBlend in="invert" in2="bg"/></filter><mask id="mask" x="48.11" y="25.88" width="46.12" height="45.54" maskUnits="userSpaceOnUse"><path class="cls-1" d="M65,44.91a7.84,7.84,0,0,0-.83,1.46c-2,4.82,2.08,8.85,6.72,9.28a6.16,6.16,0,0,0,6.68-4.28c1.58-4.89-1.42-10.91-7.13-10A8.73,8.73,0,0,0,65,44.91Z"/></mask><filter id="luminosity-invert-noclip-2" x="96.22" y="29.9" width="38.41" height="40.83" filterUnits="userSpaceOnUse" color-interpolation-filters="sRGB"><feColorMatrix values="-1 0 0 0 1 0 -1 0 0 1 0 0 -1 0 1 0 0 0 1 0" result="invert"/><feFlood flood-color="#fff" result="bg"/><feBlend in="invert" in2="bg"/></filter><mask id="mask-2" x="96.22" y="29.9" width="38.41" height="40.83" maskUnits="userSpaceOnUse"><g class="cls-8"><path class="cls-2" d="M109.7,62.7c2.07,1,8.91-.4,9.77-.71,1.57-.58,3-1.76,2.54-3.62a4.57,4.57,0,0,0-1.94-2.52,7.65,7.65,0,0,0-7.7-.7C109.76,56.56,107.3,61.55,109.7,62.7Z"/><path class="cls-2" d="M123,40.21a2,2,0,0,1-.63,1.89,4.79,4.79,0,0,1-2.35,1.16,9.06,9.06,0,0,1-7.24-.74,3.28,3.28,0,0,1-1.64-2.09,2.63,2.63,0,0,1,.69-2.06c1.51-1.72,4.1-2.14,6.25-1.76C119.63,36.88,122.65,38.39,123,40.21Z"/></g></mask><filter id="luminosity-invert-noclip-3" x="137.8" y="29.53" width="44.72" height="39.66" filterUnits="userSpaceOnUse" color-interpolation-filters="sRGB"><feColorMatrix values="-1 0 0 0 1 0 -1 0 0 1 0 0 -1 0 1 0 0 0 1 0" result="invert"/><feFlood flood-color="#fff" result="bg"/><feBlend in="invert" in2="bg"/></filter><mask id="mask-3" x="137.8" y="29.53" width="44.72" height="39.66" maskUnits="userSpaceOnUse"><path class="cls-3" d="M153.12,42.75c.17,2.06,2.76,2.66,4.88,2.56a15.32,15.32,0,0,0,8.21-2.38,2.29,2.29,0,0,0,.91-1c.46-1.32-2.11-2.64-3-3.1a17.74,17.74,0,0,0-4.85-1.61A5.56,5.56,0,0,0,153.12,42.75Z"/></mask></defs><g id="Layer_2" data-name="Layer 2"><g id="Layer_1-2" data-name="Layer 1"><path class="cls-4" d="M20.1,15.26,19,15.15c-4.4-.4-11.89-1.39-14.74,3C2.49,20.87,3.62,24.5,5.52,27c4.25,5.68,12.05,8.84,14,15.66,1.73,6.16-2.22,12.55-1.84,18.94.25,4.37,3,8.82,7.3,9.82,3.74.89,7.78-1.13,10-4.29a16.13,16.13,0,0,0,2.3-11.05c-.53-4.51-2.32-9.28-.41-13.4,2.5-5.37,10.52-7.62,10.85-13.54A8,8,0,0,0,44.76,23a19.47,19.47,0,0,0-6.15-3.35A74.68,74.68,0,0,0,20.1,15.26Z"/><g class="cls-5"><path class="cls-4" d="M65.64,26.25a24.34,24.34,0,0,0-5.15,1.43C45,33.93,45.22,52.29,54.7,63.72c6.26,7.55,15.87,9.93,24.69,5.42C94,61.68,100.78,41.35,85.84,30.58,80.34,26.62,72.57,25.11,65.64,26.25Z"/></g><g class="cls-6"><path class="cls-4" d="M103.66,31A4.2,4.2,0,0,0,102,32.52a9.17,9.17,0,0,0-1.13,3.74Q99.61,45,98.28,53.76c-.47,3.08-.94,6.16-1.43,9.24-.32,2-1.4,4.78.29,6.42,1.1,1.07,3,1.14,4.71,1.15l13.83.05c4,0,8.54.57,12.37-1,5.24-2.1,7.5-6.41,6.22-11-1.09-3.86-3.89-6.61-7.45-8.86-.71-.45-1.49-1-1.4-1.8.19-1.74,3.56-2.51,4.74-3.68a12,12,0,0,0,2.4-3.58c1.5-3.25,1.36-7-1.68-9.23a9.63,9.63,0,0,0-5.82-1.67c-5.87.1-11.73.25-17.6.34A8.44,8.44,0,0,0,103.66,31Z"/></g><g class="cls-7"><path class="cls-4" d="M140.78,38.08c-2,7.49-2.29,16.06-2.94,23.79-.27,3.12.79,6.84,4.44,7.27,4.12.49,8.55-3.11,9.05-7.16.17-1.44-.06-2.91.24-4.33a4.13,4.13,0,0,1,5.32-2.91A8.45,8.45,0,0,1,161.12,58c1.08,1.45,1.92,3.07,3,4.52a16.87,16.87,0,0,0,10,6.34,8.88,8.88,0,0,0,5.54-.4,4.66,4.66,0,0,0,2.79-4.5c-.25-2.08-2.2-3.53-4.13-4.36s-4.07-1.36-5.63-2.76c-5.44-4.89,5.43-6.73,7.67-9.87a10,10,0,0,0,1.66-5.36c.45-9.39-8.23-11.48-15.85-12a72,72,0,0,0-17,1.37c-2.33.41-5,.91-6.57,2.86a11.24,11.24,0,0,0-1.87,4.08Z"/></g><path class="cls-4" d="M186.15,66a7.56,7.56,0,0,0,1.14,2.2c1.55,2,4,2.6,6.5,2.84A30.84,30.84,0,0,0,201,70.9a89.57,89.57,0,0,0,15.35-3.08,5.53,5.53,0,0,0,3.52-2.7c1-2.21-.6-4.58-2.5-5.66-2.47-1.4-5.44-1.3-8.18-1-3.06.38-6.48,1.14-9.47,0-1.13-.43-2.28-1.34-2.24-2.55a2.46,2.46,0,0,1,1.7-2.06c1.39-.52,3.23-.4,4.71-.54a48.66,48.66,0,0,0,7.86-1.4c2.23-.59,4.11-2.53,2.25-4.78a5.13,5.13,0,0,0-3.65-1.63,28.19,28.19,0,0,0-4.1.23,7.89,7.89,0,0,1-4-.55,1.75,1.75,0,0,1-.64-2.94c2.06-2.48,6-1.79,8.84-2.15a21.91,21.91,0,0,0,7.35-2,5.41,5.41,0,0,0,2.71-2.58c1.42-3.63-4.91-5.37-7.47-5.77A44.05,44.05,0,0,0,201.3,30c-4.34.51-8.8,1.82-11.59,5.28-2.36,2.92-2.43,6.46-2.86,10C186,51.92,184.2,59.46,186.15,66Z"/><path class="cls-4" d="M233.19,31.6a5,5,0,0,1,1.12.46c1.81,1,2.62,3.17,2.83,5.35s-.09,4.48,0,6.7-.58,11.23,3.91,9.56a6.43,6.43,0,0,0,1.56-1c2.51-1.89,5.44-4.64,8.57-5.39,2.15-.52,2.75,1.19,2.81,3,.07,2-.62,4.82,1.79,5.81,3.34,1.37,5.6-3.58,6.5-5.95,1.43-3.8,1.51-8.25,3.87-11.64,3.15-4.53,11.66-6,13.37,1.09,1,4-3,7.83-5.21,10.72l-8.27,11a33.91,33.91,0,0,1-5.48,6.17,11.7,11.7,0,0,1-5.92,2.73c-2.43.23-3.74-1.12-4.86-3.11-.88-1.55-2-3-4-2.84-3.5.2-5.94,3.37-8.75,5a4.58,4.58,0,0,1-3.74.6c-1.83-.64-2.67-2.71-3.28-4.55-1.7-5.08-3.38-10.16-5.1-15.24-1.61-4.77-2.87-9.75-1.85-14.8C224,30.84,230.22,30.75,233.19,31.6Z"/><path class="cls-4" d="M51.21,18.3a5.1,5.1,0,0,1-.56,1.15,4.38,4.38,0,0,1-3,1.95,4,4,0,0,1-3-.93,2.12,2.12,0,0,1-.71-2.28,14.8,14.8,0,0,1,.71-1.44,15.8,15.8,0,0,0,.67-2.12c.48-1.6,1.66-2.87,3.45-2.34a3.91,3.91,0,0,1,2.74,3.61A5.92,5.92,0,0,1,51.21,18.3Z"/><path class="cls-4" d="M42.44,13.73c-.09.32-.2.63-.32.94a6,6,0,0,1-1.15,2c-1.75,1.84-5.26.56-6.22-1.54a4.87,4.87,0,0,1-.26-2.73,10.87,10.87,0,0,1,1.16-3.59A4.8,4.8,0,0,1,37,7.16c1.09-.75,2.47-.34,3.6.14a4,4,0,0,1,2.22,3.81A8.42,8.42,0,0,1,42.44,13.73Z"/><path class="cls-4" d="M32.71,7.56a8.58,8.58,0,0,1-.22,2c-.38,1.72-1.35,4.36-3.42,4.55a4.34,4.34,0,0,1-4.51-2.87,8.13,8.13,0,0,1-.35-2.6c0-1.12.13-2.22.16-3.33a3.62,3.62,0,0,1,.89-2.64A2.87,2.87,0,0,1,26.65,2a4.91,4.91,0,0,1,4.89,1.8A6.25,6.25,0,0,1,32.71,7.56Z"/><path class="cls-4" d="M22,6.9a5.05,5.05,0,0,1-1,2.63c-1.24,1.58-4.37,3-6.35,2.27A2.61,2.61,0,0,1,13,9.61C12.13,6,12.63.71,17.13.08a3.66,3.66,0,0,1,3.16,1.24A6.64,6.64,0,0,1,21.71,4,7.9,7.9,0,0,1,22,6.9Z"/><path class="cls-4" d="M10.87,5.71a8.32,8.32,0,0,1-1.5,6.5c-1.49,1.84-4.36,1.64-6.06.22C.47,10.05-2.1,2.21,2.58.33A5.23,5.23,0,0,1,5.71.16,6.82,6.82,0,0,1,9.84,3,7,7,0,0,1,10.87,5.71Z"/></g></g></svg>