<svg xmlns="http://www.w3.org/2000/svg" viewBox="0 0 1030.07 473.85"><defs><style>.cls-1{fill:none;}.cls-2{fill:#fff;}.cls-3,.cls-4{fill:#fcb71a;}.cls-4{fill-rule:evenodd;}</style></defs><g id="Layer_2" data-name="Layer 2"><g id="Layer_1-2" data-name="Layer 1"><path class="cls-1" d="M551.49,169.89h-8.13v83.52h8.13c22.12,0,39.73-1.8,39.73-41.76C591.22,171.47,573.61,169.89,551.49,169.89Z"/><path class="cls-1" d="M213.33,169.89h-7v78.78h7c21.9,0,39.73-.22,39.73-39.5S235.23,169.89,213.33,169.89Z"/><path class="cls-1" d="M400.7,323.17c26.64,0,38.83-14.45,38.83-76.53,0-1.65,0-3.27,0-4.86l-2.68,3.14L379.1,317.5C384.83,321.65,392,323.17,400.7,323.17Z"/><polygon class="cls-1" points="911.77 276.67 963.24 276.67 936.38 210.75 911.77 276.67"/><path class="cls-2" d="M0,211.42H3.84C5.64,171,53.5,169.89,53.5,169.89h4.29V297.66c0,15.35-9.71,23.48-19.19,23.48V325h71.11v-3.84c-9.48,0-19.19-8.13-19.19-23.48V169.89h4.29S142.9,171,144.7,211.42h3.84V166.05H0Z"/><path class="cls-2" d="M295.27,325H316v-3.84c-5.87-.45-21.89-5-26.41-22.13-11.06-40.63-29.12-50.56-43.79-49,26.86-3.16,44-13.32,44-40.86,0-37.7-31.61-43.12-76.53-43.12h-56v3.84c9.94,0,16.26,6.09,16.26,20.09V297.66c0,15.35-6.55,23.48-16.26,23.48V325H223v-3.84c-9.49,0-16.71-8.13-16.71-23.48V252.51h10.61s20.77,0,28.22,23.25C261,324.75,255.09,324.75,295.27,325Zm-81.94-76.31h-7V169.89h7c21.9,0,39.73,0,39.73,39.28S235.23,248.67,213.33,248.67Z"/><path class="cls-3" d="M439.53,246.64c0,62.08-12.19,76.53-38.83,76.53-8.69,0-15.87-1.52-21.6-5.67l-4.58,5.77A89.1,89.1,0,0,0,400.7,327c49.66,0,77.88-35.44,77.88-80.37a93.92,93.92,0,0,0-8.73-40.41L439.5,241.78C439.51,243.37,439.53,245,439.53,246.64Z"/><path class="cls-3" d="M426.79,168l-2.93,7.7c7.18,6.82,11.81,18.7,14.05,37.92l19.18-26.3A70.34,70.34,0,0,0,426.79,168Z"/><path class="cls-3" d="M355.9,314.55l8.58-25.76c-2.05-10.71-3.06-24.49-3.06-42.15,0-61.85,12.41-78.79,39.28-78.79q2.08,0,4.05.15l1.28-3.83c-1.75-.1-3.53-.15-5.33-.15-49.67,0-77.89,37.92-77.89,82.62C322.81,275.47,334.44,300.39,355.9,314.55Z"/><path class="cls-2" d="M551.49,166.05H504.15l-4.39,5.14c6.78,3.46,10.87,13.4,10.87,24.66v98.2c0,15.35-5.42,27.09-14.9,27.09V325H570v-3.84c-9.71,0-26.64-1.58-26.64-27.09v-36.8h8.13c44.92,0,76.75-7.9,76.75-45.6S596.41,166.05,551.49,166.05Zm0,87.36h-8.13V169.89h8.13c22.12,0,39.73,1.58,39.73,41.76C591.22,251.61,573.61,253.41,551.49,253.41Z"/><path class="cls-2" d="M644.49,169.89c9.93,0,19.19,6.09,19.19,20.09V297.66c0,15.35-9.48,23.48-19.19,23.48V325H715.6v-3.84c-9.48,0-19.19-8.13-19.19-23.48V190c0-14,9.48-20.09,19.19-20.09v-3.84H644.49Z"/><path class="cls-2" d="M811.09,167.85c25.74,0,38.83,14.9,51.47,45.38h3.84l3.16-35.44C855.34,166.27,834.34,164,811.09,164c-48.31,0-78.33,36.57-78.33,81.49s30,81.5,78.33,81.5c24.16,0,41.77-2.94,58.47-14l-3.16-35.44h-3.84c-5.87,24.61-24.38,45.6-51.47,45.6-24.38,0-37.7-15.58-37.7-77.66C773.39,183.66,786,167.85,811.09,167.85Z"/><path class="cls-2" d="M1011.1,304.66s-2-5.87-57.34-138.61h-3.83L910.87,269c-22.12,53.5-27.77,51.7-33.64,52.15V325h55.54v-3.84c-35.67,1.8-21.67-40.64-21.67-40.64h53.5L971.37,297s11.74,24.16-5.87,24.16V325h64.57v-3.84C1024.2,320.69,1018.78,322.72,1011.1,304.66Zm-99.33-28,24.61-65.92,26.86,65.92Z"/><path class="cls-4" d="M301.59,471.59,467.14,16.35S471.27-3.5,487.45.54s6.77,21.83,6.77,21.83L308.36,473.85Z"/><path class="cls-4" d="M574.77,43.34c-14.43-8.38-23.9,9.54-23.9,9.54L265.46,444.29l5.88,4L575.22,66.18S589.2,51.72,574.77,43.34Z"/></g></g></svg>