<svg xmlns="http://www.w3.org/2000/svg" viewBox="0 0 940.35 108.7"><defs><style>.cls-1{fill:#fff;}</style></defs><g id="Layer_2" data-name="Layer 2"><g id="Layer_1-2" data-name="Layer 1"><path class="cls-1" d="M163.06,2.28,127.49,106H105.21L81.6,40.93,58,106H35.7L0,2.28H24.16L47.1,69,71.4,2.28H91.79L116.08,69l23-66.7Z"/><path class="cls-1" d="M188.42,83.88,178.76,106H153.93l45-103.74h23.75L267.73,106h-25l-9.52-22.14ZM210.7,32.34,198.22,61.06h25.09Z"/><path class="cls-1" d="M370.53,2.28,324.1,106H302L255.39,2.28h25L313,75,345.57,2.28h25Z"/><path class="cls-1" d="M407.71,25.1V40.53h42V63.34h-42V83.21h43.48V106h-66.3V2.28h66.3V25.1Z"/><path class="cls-1" d="M495.88,21.88l-18.52,85.35-6.45-1.48L493.73.13l39.86,91.66L573.31,0l23,105.89-6.44,1.47L571.16,21.74l-37.57,87Z"/><path class="cls-1" d="M658.8,107.63q-14.37,0-23.76-5.23a31.49,31.49,0,0,1-12.75-12.62,30.89,30.89,0,0,1-3-7A65.31,65.31,0,0,1,617.73,76a40.2,40.2,0,0,1-.6-5.84c0-1.79-.07-3.22-.07-4.3V2.28h6.71V65.89c0,1,0,2.24.07,3.76a44.51,44.51,0,0,0,.47,5.1,41.79,41.79,0,0,0,1.27,5.84,29.85,29.85,0,0,0,2.48,6q8.06,14.37,30.74,14.36t30.59-14.36a32.09,32.09,0,0,0,2.55-6,37.29,37.29,0,0,0,1.35-5.84,49.54,49.54,0,0,0,.47-5.1c0-1.52.06-2.77.06-3.76V2.28h6.71V65.89c0,1.08,0,2.51-.06,4.3a41.75,41.75,0,0,1-.61,5.84,65.31,65.31,0,0,1-1.54,6.71,30.89,30.89,0,0,1-3,7,31.49,31.49,0,0,1-12.75,12.62Q673,107.64,658.8,107.63Z"/><path class="cls-1" d="M761.46,107.77a10.83,10.83,0,0,1-1.21-.07,7.79,7.79,0,0,0-1.07-.07,50.34,50.34,0,0,1-10.94-1.48,43.74,43.74,0,0,1-10.4-4,38.24,38.24,0,0,1-8.79-6.24,31.5,31.5,0,0,1-5.84-7.45l6-3.09q3.22,6.32,11.81,10.87a38.53,38.53,0,0,0,18.25,4.7h.14a38,38,0,0,0,9.59-.81,36.81,36.81,0,0,0,10.74-3.89,30.58,30.58,0,0,0,9-7.45,20,20,0,0,0,4.36-11.47q.68-8.19-4.29-13.55a26.2,26.2,0,0,0-11.28-6.65,53.61,53.61,0,0,0-16.5-2.35q-2.29,0-6-.33a54.24,54.24,0,0,1-7.85-1.34,43.89,43.89,0,0,1-8.32-3,24.49,24.49,0,0,1-7.38-5.3,23.22,23.22,0,0,1-5.9-17.17,26.1,26.1,0,0,1,7.51-17.58A33.8,33.8,0,0,1,749,1.74,43.47,43.47,0,0,1,761.53.6a53.26,53.26,0,0,1,12.68,2.22,40,40,0,0,1,11.27,5.43,24.54,24.54,0,0,1,7.38,8L787,19.59a17.61,17.61,0,0,0-5.71-6.1,33,33,0,0,0-9.06-4.23,44,44,0,0,0-10.87-1.88,38.59,38.59,0,0,0-10.73.94,35.83,35.83,0,0,0-5.44,1.75,21.45,21.45,0,0,0-5.77,3.48,20.93,20.93,0,0,0-4.76,5.84,19.38,19.38,0,0,0-2.28,8.66q-.4,7.52,4.16,12.08a19,19,0,0,0,6.17,4.29,39.43,39.43,0,0,0,7.18,2.42,43,43,0,0,0,6.64,1c2.06.14,3.58.2,4.57.2a60.33,60.33,0,0,1,19.25,2.82,30.84,30.84,0,0,1,13.36,8.32q7,7.65,6.17,18.66a26.8,26.8,0,0,1-5.5,14.63,32.22,32.22,0,0,1-10.87,9.39,43.64,43.64,0,0,1-11.68,4.56A47.19,47.19,0,0,1,761.46,107.77Z"/><path class="cls-1" d="M823.32,106V2.28H830V106Z"/><path class="cls-1" d="M902.5,107.63a55.66,55.66,0,0,1-20.93-4.16,66.55,66.55,0,0,1-9-5,45,45,0,0,1-7.92-6.57A52.87,52.87,0,0,1,849,54.08a51.93,51.93,0,0,1,4.16-20.8,49.52,49.52,0,0,1,11.54-17A52.46,52.46,0,0,1,881.57,4.7,53.7,53.7,0,0,1,902.5.54a52.91,52.91,0,0,1,37.85,15.7l-4.83,4.7a44.53,44.53,0,0,0-15.1-10.2A46.78,46.78,0,0,0,902.5,7.25a45.76,45.76,0,0,0-18.25,3.69,46.43,46.43,0,0,0-24.89,24.89,45.59,45.59,0,0,0-3.69,18.25,45.09,45.09,0,0,0,3.69,18.19,48.11,48.11,0,0,0,10,14.89,46.62,46.62,0,0,0,14.9,10.07,45.76,45.76,0,0,0,18.25,3.69,46.78,46.78,0,0,0,17.92-3.49,44.53,44.53,0,0,0,15.1-10.2l4.83,4.7a52.28,52.28,0,0,1-17.05,11.54A54.68,54.68,0,0,1,902.5,107.63Z"/></g></g></svg>