<svg xmlns="http://www.w3.org/2000/svg" viewBox="0 0 227.86 268.31"><defs><style>.cls-1{opacity:0.85;}.cls-2{isolation:isolate;}.cls-3{fill:#0052f6;}.cls-4{fill:#003194;}</style></defs><g id="Layer_2" data-name="Layer 2"><g id="Layer_1-2" data-name="Layer 1"><g class="cls-1"><g class="cls-2"><path class="cls-3" d="M205.69,118.8c6.84,3.94,12.36,13.51,12.34,21.37l-.34,119.36c0,7.86-5.58,11-12.42,7.08L12.34,155.22C5.5,151.27,0,141.7,0,133.85L.34,14.48c0-7.85,5.58-11,12.42-7.07Z"/><path class="cls-4" d="M227.5,254.58c0-.25,0-.5,0-.76l.34-119.36c0-.28,0-.56,0-.84,0-.09,0-.18,0-.27s0-.39,0-.59a.66.66,0,0,1,0-.14,1.11,1.11,0,0,1,0-.19l-.06-.46c0-.11,0-.23-.05-.34s0-.31-.07-.47,0-.23-.07-.34l-.09-.49c0-.11,0-.22-.07-.33s-.09-.34-.13-.51-.05-.2-.07-.3l-.18-.62c0-.07,0-.13-.05-.2-.08-.27-.17-.54-.26-.81l-.08-.21-.21-.6-.12-.3c-.06-.17-.13-.34-.2-.51l-.13-.33-.21-.47-.15-.34c-.07-.16-.14-.31-.22-.46l-.16-.34-.23-.45-.18-.34-.24-.45-.18-.32-.27-.45-.18-.31-.3-.48-.17-.27c-.12-.19-.25-.38-.38-.56l-.11-.17-.51-.71v0l-.09-.11-.46-.61-.2-.24-.39-.48c-.08-.08-.15-.17-.22-.25l-.4-.46a2.39,2.39,0,0,1-.22-.23l-.48-.51-.12-.12,0,0-.39-.38-.2-.19c-.19-.18-.39-.37-.6-.54,0,0,0,0-.05,0l-.56-.47-.21-.16-.42-.33,0,0-.51-.37-.14-.1-.44-.29-.16-.1-.57-.34L22.59,1.69,22,1.38l-.18-.1-.24-.12-.15-.07L21.18,1,20.84.83l-.25-.1L20.24.6,20,.51,19.64.4,19.43.34,19,.24l-.17,0L18.31.1h-.09c-.15,0-.3,0-.45-.06h-.19l-.34,0h-.72l-.3,0-.2,0-.28,0-.21,0-.27.06-.19.06c-.09,0-.18.06-.27.09l-.18.06-.29.12-.14.06c-.14.07-.28.14-.41.22L4,6.54c.13-.07.27-.15.41-.21l.14-.06.29-.13L5,6.08,5.24,6l.19,0,.27-.07.21,0,.28,0,.2,0,.3,0h.72l.34,0h.19l.45.06h.09l.55.1L9.2,6l.39.1.22.07.36.11.24.08.35.13.25.1.34.15.26.12L12,7l.17.09c.2.1.39.2.59.32L205.69,118.8l.57.34.16.11.44.29.14.09.54.4.42.32.21.16.55.47.06,0c.2.18.41.36.6.55l.19.18c.14.13.27.25.4.39l.15.14.48.51.22.24.4.45.22.26.39.47c.06.08.13.16.19.25l.47.6a1.47,1.47,0,0,0,.1.13l.51.71.11.17.38.56.17.28.3.47.18.31.27.45.18.33.24.44.18.34.23.45c0,.12.11.23.16.34l.22.46.15.34.21.47.13.33c.07.17.14.34.2.51l.12.3.21.6.08.21c.09.28.17.55.26.82,0,.06,0,.12,0,.19l.18.62c0,.1.05.2.07.3s.09.35.13.52,0,.22.07.33l.09.48c0,.11,0,.23.06.34s.06.31.08.47,0,.23.05.35,0,.3,0,.46,0,.22,0,.32,0,.4,0,.59,0,.18,0,.27c0,.28,0,.56,0,.84l-.34,119.36c0,.26,0,.51,0,.76,0,.09,0,.16,0,.25s0,.32,0,.48l0,.31c0,.12,0,.24-.05.37a2.93,2.93,0,0,0-.05.29c0,.12,0,.24-.07.35s0,.19-.07.29-.05.22-.08.33a2.76,2.76,0,0,1-.08.27,2.81,2.81,0,0,1-.1.31,2.25,2.25,0,0,1-.08.24c-.05.13-.09.25-.14.37l-.1.22c0,.12-.11.23-.17.35l-.09.19-.23.39-.07.11c-.1.16-.21.31-.32.46l-.08.1a3.11,3.11,0,0,1-.29.33.86.86,0,0,1-.13.14l-.26.26-.15.14-.3.23-.14.11a5,5,0,0,1-.45.29l9.83-5.71a3.52,3.52,0,0,0,.45-.3l.14-.1.3-.24L225,261l.26-.26.14-.14.28-.33.07-.09v0c.11-.14.22-.3.33-.46l.06-.1c.08-.13.16-.26.23-.4l.09-.18c.06-.12.12-.24.17-.36a1.47,1.47,0,0,0,.1-.22c.05-.11.09-.23.14-.36s0-.08,0-.13a.76.76,0,0,1,0-.11l.09-.31a2.29,2.29,0,0,0,.08-.28l.09-.33.06-.28c0-.12,0-.23.07-.35s0-.2.05-.3,0-.24,0-.37l0-.23v-.07c0-.16,0-.32,0-.49A1.94,1.94,0,0,0,227.5,254.58Z"/></g></g></g></g></svg>